<svg xmlns="http://www.w3.org/2000/svg" viewBox="0 0 128 128" width="256" height="256">
  <defs>
    <radialGradient id="g1" cx="45%" cy="38%" r="60%">
      <stop offset="0%" stop-color="#A0724A"/>
      <stop offset="100%" stop-color="#6D4C30"/>
    </radialGradient>
    <radialGradient id="g2" cx="45%" cy="35%" r="60%">
      <stop offset="0%" stop-color="#956840"/>
      <stop offset="100%" stop-color="#5E3E22"/>
    </radialGradient>
  </defs>

  <!-- 바닥 그림자 -->
  <ellipse cx="64" cy="118" rx="42" ry="7" fill="#00000020"/>

  <!-- 아래층 (넓고 큰 몸통) -->
  <path d="M18,88 C18,65 32,52 64,52 C96,52 110,65 110,88 C110,106 95,115 64,115 C33,115 18,106 18,88Z" fill="url(#g2)"/>

  <!-- 윗층 (머리) -->
  <path d="M35,56 C35,42 45,34 64,34 C83,34 93,42 93,56 C93,68 83,73 64,73 C45,73 35,68 35,56Z" fill="url(#g1)"/>

  <!-- 꼭대기 소용돌이 -->
  <path d="M64,34 C64,34 58,28 60,20 C62,12 72,12 74,18 C76,24 68,28 64,34Z" fill="url(#g1)"/>

  <!-- 눈 -->
  <ellipse cx="51" cy="60" rx="5.5" ry="6" fill="white"/>
  <ellipse cx="77" cy="60" rx="5.5" ry="6" fill="white"/>
  <ellipse cx="52" cy="61" rx="3" ry="3.5" fill="#3B2410"/>
  <ellipse cx="78" cy="61" rx="3" ry="3.5" fill="#3B2410"/>
  <ellipse cx="53" cy="59.5" rx="1.3" ry="1.5" fill="white"/>
  <ellipse cx="79" cy="59.5" rx="1.3" ry="1.5" fill="white"/>

  <!-- 입 (활짝 웃는 입) -->
  <path d="M50,80 Q64,92 78,80" stroke="#3B2410" stroke-width="2" fill="none" stroke-linecap="round"/>

  <!-- 볼터치 -->
  <circle cx="42" cy="78" r="5" fill="#D4846A" opacity="0.35"/>
  <circle cx="86" cy="78" r="5" fill="#D4846A" opacity="0.35"/>
</svg>